<svg width="28" height="28" viewBox="0 0 28 28" fill="none" xmlns="http://www.w3.org/2000/svg">
<g id="&#227;&#131;&#146;&#227;&#130;&#153;&#227;&#131;&#179;&#227;&#130;&#179;&#227;&#130;&#153;&#229;&#164;&#167;&#228;&#188;&#154;&#227;&#129;&#174;&#227;&#130;&#171;&#227;&#131;&#188;&#227;&#131;&#136;&#227;&#130;&#153;&#227;&#131;&#187;&#227;&#130;&#183;&#227;&#131;&#188;&#227;&#131;&#136;&#227;&#129;&#174;&#231;&#132;&#161;&#230;&#150;&#153;&#227;&#130;&#162;&#227;&#130;&#164;&#227;&#130;&#179;&#227;&#131;&#179;&#231;&#180;&#160;&#230;&#157;&#144; 1 1">
<g id="Group">
<path id="Vector" d="M24.3661 0H3.63378C2.90977 0 2.32275 0.587016 2.32275 1.31102V26.689C2.32275 27.4131 2.90955 28 3.63356 28H24.3661C25.0903 28 25.6771 27.413 25.6771 26.689V1.31102C25.677 0.587016 25.0903 0 24.3661 0ZM4.00975 25.953V2.04673C4.00975 1.84805 4.17081 1.687 4.36971 1.687H23.6304C23.8291 1.687 23.9901 1.84805 23.9901 2.04673V25.953C23.9901 26.1519 23.829 26.313 23.6304 26.313H4.36965C4.17081 26.313 4.00975 26.1519 4.00975 25.953Z" fill="#07033E"/>
<path id="Vector_2" d="M9.68681 6.5832C9.80067 6.54263 9.89747 6.48493 9.97759 6.41056C10.0575 6.33624 10.1186 6.24627 10.1606 6.14095C10.2027 6.03562 10.2239 5.91706 10.2239 5.78504C10.2239 5.67824 10.2091 5.58275 10.1797 5.49859C10.1502 5.41442 10.103 5.33704 10.0385 5.26704C10.0075 5.23609 9.97671 5.20934 9.94576 5.18692C9.9229 5.17024 9.88402 5.1487 9.84513 5.12709C9.83491 5.1196 9.82572 5.11342 9.8144 5.10467C10.059 4.96708 10.1818 4.75604 10.1818 4.47084C10.1818 4.34463 10.1601 4.23099 10.1165 4.12992C10.0731 4.0287 10.0114 3.94235 9.93127 3.8706C9.85115 3.79901 9.75353 3.74367 9.63841 3.7044C9.52324 3.66508 9.39549 3.64545 9.25516 3.64545H8.05078V6.64429H9.30559C9.44602 6.64429 9.57317 6.624 9.68681 6.5832ZM8.63599 4.85842V4.16777H9.20868C9.32938 4.16777 9.42426 4.19872 9.493 4.26046C9.5618 4.3222 9.5962 4.40637 9.5962 4.51317C9.5962 4.61981 9.5618 4.70414 9.493 4.76594C9.4242 4.82768 9.32938 4.85842 9.20868 4.85842H8.63599ZM9.63831 5.75135C9.63831 5.86652 9.60325 5.95731 9.53298 6.02309C9.46265 6.0891 9.36738 6.12202 9.24652 6.12202H8.63599V5.38478H9.24652C9.36738 5.38478 9.4627 5.41727 9.53298 5.4818C9.60331 5.54649 9.63831 5.63618 9.63831 5.75135Z" fill="#07033E"/>
<path id="Vector_3" d="M11.4076 3.64545H10.8223V6.64429H11.4076V3.64545Z" fill="#07033E"/>
<path id="Vector_4" d="M12.1067 6.63554V6.64429H12.6813H12.6832H12.692V5.63919L12.699 4.81483L13.8797 6.64429H14.4021V3.64545H13.8165V4.6482L13.8095 5.47064L12.629 3.64545H12.1067V6.62657L12.1064 6.63554H12.1067Z" fill="#07033E"/>
<path id="Vector_5" d="M15.0405 5.85051C15.0587 5.9473 15.0882 6.03633 15.129 6.11771C15.1698 6.1993 15.2279 6.27794 15.3037 6.35358C15.4075 6.4548 15.5242 6.53279 15.6534 6.58747C15.7824 6.64216 15.9326 6.66951 16.1039 6.66951C16.2642 6.66951 16.4134 6.64555 16.5525 6.59797C16.6914 6.55034 16.8243 6.46038 16.9508 6.32836C17.0601 6.21626 17.1351 6.08976 17.1759 5.94938C17.2165 5.80883 17.237 5.63066 17.237 5.41448V4.97633H16.104V5.46917H16.6558V5.57876C16.6558 5.6574 16.6453 5.72981 16.6242 5.7956C16.603 5.86155 16.5688 5.92269 16.521 5.97886C16.4734 6.03229 16.4144 6.07368 16.3441 6.10322C16.2738 6.13269 16.1939 6.14724 16.104 6.14724C16.0227 6.14724 15.9511 6.13335 15.8893 6.10513C15.8274 6.07713 15.7742 6.03934 15.7291 5.99149C15.7011 5.96054 15.6778 5.92548 15.6596 5.88616C15.6415 5.84684 15.6265 5.7962 15.6154 5.73446C15.6041 5.67272 15.5966 5.595 15.5923 5.50072C15.5881 5.40677 15.5859 5.28821 15.5859 5.14487C15.5859 5.0017 15.588 4.88314 15.5923 4.78897C15.5966 4.69496 15.604 4.61697 15.6154 4.55523C15.6265 4.49349 15.6415 4.4435 15.6596 4.40572C15.6778 4.36771 15.7011 4.33331 15.7291 4.30258C15.7742 4.25472 15.8274 4.21606 15.8893 4.18653C15.9511 4.15711 16.0227 4.14256 16.104 4.14256C16.3961 4.14256 16.5759 4.28841 16.6432 4.58044H17.1474L17.2242 4.58175C17.2242 4.58132 17.224 4.58088 17.224 4.58044H17.233C17.2134 4.45422 17.176 4.33331 17.1213 4.21836C17.0664 4.10318 16.9929 4.0013 16.9002 3.91287C16.8075 3.82444 16.6951 3.75351 16.5633 3.70014C16.4311 3.64693 16.2782 3.62024 16.104 3.62024C15.9327 3.62024 15.7825 3.64758 15.6535 3.70227C15.5243 3.75696 15.4076 3.83494 15.3038 3.93622C15.228 4.0118 15.1699 4.09066 15.1291 4.17204C15.0883 4.25347 15.0588 4.34255 15.0406 4.43929C15.0223 4.53631 15.0112 4.64218 15.0069 4.75758C15.0028 4.87253 15.0005 5.00176 15.0005 5.14487C15.0005 5.28821 15.0028 5.41722 15.0069 5.53239C15.0111 5.64756 15.0222 5.75349 15.0405 5.85051Z" fill="#07033E"/>
<path id="Vector_6" d="M17.7739 5.85051C17.792 5.9473 17.8215 6.03633 17.8623 6.11771C17.9031 6.1993 17.9614 6.27794 18.0373 6.35358C18.1383 6.4548 18.2541 6.53279 18.3846 6.58747C18.5151 6.64216 18.6677 6.66951 18.8415 6.66951C19.0159 6.66951 19.1674 6.64216 19.2966 6.58747C19.4256 6.53279 19.5408 6.4548 19.6418 6.35358C19.7176 6.27794 19.776 6.1993 19.8167 6.11771C19.8575 6.03633 19.8875 5.94725 19.9073 5.85051C19.9267 5.75349 19.9389 5.64756 19.9432 5.53239C19.9473 5.41722 19.9494 5.28821 19.9494 5.14487C19.9494 5.0017 19.9473 4.87247 19.9432 4.75758C19.9389 4.64218 19.9267 4.53631 19.9073 4.43929C19.8875 4.3425 19.8576 4.25347 19.8167 4.17204C19.7759 4.09066 19.7176 4.0118 19.6418 3.93622C19.5408 3.83494 19.4256 3.75696 19.2966 3.70227C19.1674 3.64758 19.0159 3.62024 18.8415 3.62024C18.6677 3.62024 18.5151 3.64758 18.3846 3.70227C18.2541 3.75696 18.1383 3.83494 18.0373 3.93622C17.9614 4.0118 17.9031 4.09066 17.8623 4.17204C17.8216 4.25347 17.792 4.34255 17.7739 4.43929C17.7555 4.53631 17.7444 4.64218 17.7401 4.75758C17.7361 4.87253 17.7339 5.00176 17.7339 5.14487C17.7339 5.28821 17.736 5.41722 17.7401 5.53239C17.7444 5.64756 17.7555 5.75349 17.7739 5.85051ZM18.6247 4.18653C18.688 4.15711 18.7604 4.14256 18.8415 4.14256C18.9232 4.14256 18.9954 4.15711 19.0586 4.18653C19.1219 4.21601 19.1744 4.25467 19.2165 4.30258C19.2444 4.33331 19.2678 4.36771 19.2861 4.40572C19.3043 4.4435 19.319 4.49354 19.3303 4.55523C19.3414 4.61697 19.35 4.6949 19.3555 4.78897C19.3611 4.88314 19.3639 5.0017 19.3639 5.14487C19.3639 5.28821 19.3611 5.40677 19.3555 5.50072C19.35 5.59495 19.3414 5.67206 19.3303 5.73249C19.319 5.79297 19.3043 5.84186 19.2861 5.87987C19.2678 5.91772 19.2444 5.95211 19.2165 5.98285C19.1744 6.0307 19.1219 6.07002 19.0586 6.10075C18.9954 6.13171 18.9232 6.14713 18.8415 6.14713C18.7604 6.14713 18.688 6.13171 18.6247 6.10075C18.5615 6.07002 18.5074 6.0307 18.4625 5.98285C18.4346 5.95211 18.4112 5.91772 18.3931 5.87987C18.3747 5.84186 18.36 5.79292 18.3489 5.73249C18.3376 5.672 18.3299 5.59495 18.3256 5.50072C18.3213 5.40677 18.3194 5.28821 18.3194 5.14487C18.3194 5.0017 18.3213 4.88314 18.3256 4.78897C18.3299 4.69496 18.3376 4.61697 18.3489 4.55523C18.36 4.49349 18.3747 4.4435 18.3931 4.40572C18.4112 4.36771 18.4345 4.33331 18.4625 4.30258C18.5074 4.25472 18.5615 4.21606 18.6247 4.18653Z" fill="#07033E"/>
<path id="Vector_7" d="M5.64935 7.85211C5.5823 7.85211 5.52783 7.90636 5.52783 7.97341V13.2747V13.9495V18.6973V19.3721V24.6734C5.52783 24.7405 5.5823 24.7947 5.64935 24.7947H10.9509H11.6257H16.3741H17.049H22.3502C22.4173 24.7947 22.4718 24.7405 22.4718 24.6734V19.3721V18.6973V13.9495V13.2747V7.97341C22.4718 7.90636 22.4173 7.85211 22.3502 7.85211H17.049H16.3741H11.6257H10.9509H5.64935ZM10.7436 8.73417L6.40983 13.0675C6.33338 13.1439 6.20262 13.0897 6.20262 12.9816V8.64831C6.20262 8.58126 6.25709 8.52674 6.32414 8.52674H10.6577C10.766 8.52674 10.8201 8.65771 10.7436 8.73417ZM6.32419 13.9495H10.8295C10.8966 13.9495 10.9508 14.0038 10.9508 14.0708V18.5759C10.9508 18.643 10.8966 18.6972 10.8295 18.6972H6.32419C6.25714 18.6972 6.20268 18.643 6.20268 18.5759V14.0708C6.20262 14.0038 6.25709 13.9495 6.32419 13.9495ZM6.32419 19.3721H10.8295C10.8966 19.3721 10.9508 19.4264 10.9508 19.4934V23.9985C10.9508 24.0656 10.8966 24.1201 10.8295 24.1201H6.32419C6.25714 24.1201 6.20268 24.0656 6.20268 23.9985V19.4934C6.20262 19.4264 6.25709 19.3721 6.32419 19.3721ZM16.2525 13.2747H11.7472C11.6802 13.2747 11.6257 13.2205 11.6257 13.1534V8.64831C11.6257 8.58126 11.6802 8.52674 11.7472 8.52674H16.2525C16.3196 8.52674 16.3741 8.58126 16.3741 8.64831V13.1534C16.3741 13.2205 16.3196 13.2747 16.2525 13.2747ZM11.7472 13.9495H16.2525C16.3196 13.9495 16.3741 14.0038 16.3741 14.0708V18.5759C16.3741 18.643 16.3196 18.6972 16.2525 18.6972H11.7472C11.6802 18.6972 11.6257 18.643 11.6257 18.5759V14.0708C11.6257 14.0038 11.6801 13.9495 11.7472 13.9495ZM11.7472 19.3721H16.0808C16.1891 19.3721 16.2431 19.5028 16.1666 19.5794L11.8331 23.9127C11.7566 23.9891 11.6257 23.9351 11.6257 23.8268V19.4935C11.6257 19.4264 11.6801 19.3721 11.7472 19.3721ZM21.6756 13.2747H17.1703C17.1032 13.2747 17.049 13.2205 17.049 13.1534V8.64831C17.049 8.58126 17.1032 8.52674 17.1703 8.52674H21.6756C21.7426 8.52674 21.7969 8.58126 21.7969 8.64831V13.1534C21.7969 13.2205 21.7426 13.2747 21.6756 13.2747ZM17.1703 13.9495H21.5038C21.6119 13.9495 21.6662 14.0803 21.5897 14.1568L17.2561 18.4901C17.1797 18.5665 17.0489 18.5123 17.0489 18.4042V14.0709C17.0489 14.0038 17.1032 13.9495 17.1703 13.9495ZM17.1703 19.3721H21.6756C21.7426 19.3721 21.7969 19.4264 21.7969 19.4934V23.9985C21.7969 24.0656 21.7426 24.1201 21.6756 24.1201H17.1703C17.1032 24.1201 17.049 24.0656 17.049 23.9985V19.4934C17.0489 19.4264 17.1032 19.3721 17.1703 19.3721Z" fill="#07033E"/>
<path id="Vector_8" d="M13.0638 16.747C13.0924 16.775 13.1055 16.8151 13.0987 16.8547L12.9408 17.7749C12.924 17.8741 13.028 17.9497 13.1171 17.9029L13.9435 17.4684C13.979 17.4498 14.0213 17.4498 14.0565 17.4684L14.8833 17.9029C14.9724 17.9497 15.0764 17.8741 15.0593 17.7749L14.9015 16.8547C14.8948 16.8152 14.9079 16.775 14.9365 16.747L15.6051 16.0952C15.6771 16.0249 15.6374 15.9027 15.5379 15.8882L14.6137 15.7538C14.5742 15.748 14.54 15.7233 14.5223 15.6874L14.109 14.85C14.0645 14.7598 13.9359 14.7598 13.8913 14.85L13.4779 15.6874C13.4604 15.7233 13.4262 15.7481 13.3865 15.7538L12.4624 15.8882C12.3628 15.9027 12.3231 16.0249 12.3953 16.0952L13.0638 16.747Z" fill="#07033E"/>
<path id="Vector_9" d="M6.85285 4.85846H5.40576V5.38483H6.85285V4.85846Z" fill="#07033E"/>
<path id="Vector_10" d="M21.147 5.3763V5.38483H22.5941V4.85846H21.147V5.3746V5.3763Z" fill="#07033E"/>
</g>
</g>
</svg>
