<svg width="20" height="20" viewBox="0 0 20 20" fill="none" xmlns="http://www.w3.org/2000/svg">
<g id="&#227;&#131;&#149;&#227;&#130;&#154;&#227;&#131;&#172;&#227;&#130;&#187;&#227;&#130;&#153;&#227;&#131;&#179;&#227;&#131;&#136;&#227;&#129;&#174;&#227;&#131;&#149;&#227;&#131;&#170;&#227;&#131;&#188;&#227;&#130;&#162;&#227;&#130;&#164;&#227;&#130;&#179;&#227;&#131;&#179; 1" clip-path="url(#clip0_250_28)">
<g id="Group">
<path id="Vector" d="M2.37598 7.64181V12.5219H8.84746V6.97693H3.04051C2.67297 6.97693 2.37598 7.2749 2.37598 7.64181Z" fill="#07033E"/>
<path id="Vector_2" d="M16.9597 6.97693H11.1528V12.5219H17.6243V7.64185C17.6243 7.2749 17.3273 6.97693 16.9597 6.97693Z" fill="#07033E"/>
<path id="Vector_3" d="M2.37598 19.3354C2.37598 19.703 2.67301 20 3.04051 20H8.84746V14.4553H2.37598V19.3354Z" fill="#07033E"/>
<path id="Vector_4" d="M11.1528 20H16.9597C17.3273 20 17.6243 19.7029 17.6243 19.3354V14.4553H11.1528V20Z" fill="#07033E"/>
<path id="Vector_5" d="M15.3394 4.43688C15.6127 4.13707 15.8322 3.81141 15.9855 3.46695C16.1384 3.12281 16.2255 2.75867 16.2255 2.39051C16.2259 2.14582 16.1865 1.9002 16.1049 1.66438C16.0138 1.40121 15.8814 1.16231 15.7177 0.955469C15.4723 0.644258 15.158 0.404766 14.8105 0.24379C14.463 0.0831256 14.0813 5.52112e-07 13.6919 5.52112e-07C13.4066 5.52112e-07 13.1175 0.0449615 12.8362 0.137618C12.4139 0.276133 12.0088 0.524532 11.6675 0.881602C11.3255 1.23898 11.0484 1.70348 10.8665 2.26492C10.6289 2.99508 9.91723 4.65172 9.8975 4.69234H9.82981C9.80981 4.65172 9.09844 2.99504 8.86082 2.26492C8.73922 1.89031 8.57637 1.5591 8.37906 1.27438C8.08356 0.846837 7.71145 0.523907 7.30574 0.312735C6.9 0.101016 6.46289 -0.000272885 6.03531 5.52112e-07C5.51664 0.000313052 5.01 0.147774 4.58149 0.430938C4.36758 0.572227 4.17301 0.748321 4.00985 0.955469C3.84578 1.16231 3.71344 1.40117 3.62231 1.66438C3.54043 1.90047 3.50164 2.14609 3.50195 2.39051C3.50195 2.63555 3.54043 2.87965 3.61153 3.11664C3.73621 3.53156 3.95817 3.92527 4.25547 4.28481C4.70242 4.8241 5.32051 5.28859 6.07129 5.62195C6.82172 5.955 7.70641 6.15602 8.6834 6.15602C9.23684 6.1557 9.84231 6.16063 9.86356 6.15602C9.88481 6.16063 10.49 6.1557 11.044 6.15602C11.788 6.15602 12.4791 6.03969 13.0975 5.8368C14.0256 5.53207 14.7918 5.03555 15.3394 4.43688ZM12.2834 1.92047C12.4788 1.6382 12.7066 1.44613 12.947 1.32055C13.1877 1.19496 13.4426 1.1368 13.6919 1.13617C13.9942 1.13617 14.2854 1.22359 14.5187 1.37875C14.6363 1.45633 14.7394 1.5502 14.8256 1.65945C14.9118 1.76871 14.9813 1.8934 15.0309 2.0359C15.0696 2.14766 15.0884 2.26492 15.0888 2.3902C15.0888 2.51582 15.0691 2.64969 15.0269 2.79004C14.9536 3.03598 14.8105 3.3016 14.5959 3.5602C14.2758 3.94773 13.7978 4.31586 13.195 4.58305C12.5918 4.85086 11.865 5.01922 11.044 5.01922C11 5.01922 10.9572 5.01859 10.916 5.01734C11.2145 4.51684 11.5753 3.75898 11.9472 2.61578C12.0377 2.33785 12.1529 2.10914 12.2834 1.92047ZM4.78067 3.00555C4.68313 2.78637 4.63848 2.57828 4.63848 2.39051C4.63848 2.26492 4.65754 2.14797 4.69633 2.03652L4.6966 2.0359C4.74586 1.8934 4.81543 1.76875 4.90192 1.65945C5.0309 1.4957 5.19895 1.36578 5.39379 1.27559C5.58832 1.18543 5.80875 1.13613 6.03528 1.13613C6.20149 1.13613 6.3702 1.16231 6.53547 1.21711C6.7836 1.29898 7.02336 1.44332 7.23856 1.66773C7.45309 1.89215 7.64457 2.19902 7.78028 2.61609C8.1518 3.75902 8.51289 4.51688 8.81145 5.0177C8.76992 5.01859 8.72742 5.01926 8.6834 5.01926C8.05793 5.01926 7.48692 4.92168 6.98363 4.75668C6.22887 4.50981 5.6268 4.10871 5.22692 3.67039C5.0266 3.45125 4.87735 3.22375 4.78067 3.00555Z" fill="#07033E"/>
</g>
</g>
<defs>
<clipPath id="clip0_250_28">
<rect width="20" height="20" fill="white"/>
</clipPath>
</defs>
</svg>
