<svg width="30" height="30" viewBox="0 0 30 30" fill="none" xmlns="http://www.w3.org/2000/svg">
<g clip-path="url(#clip0_191_893)">
<path fill-rule="evenodd" clip-rule="evenodd" d="M2.17077 8.06076C0.971889 8.06076 0 9.03261 0 10.2315V27.5977C0 28.7966 0.971889 29.7684 2.17077 29.7684H19.5369C20.7358 29.7684 21.7077 28.7966 21.7077 27.5977V10.2315C21.7077 9.03261 20.7358 8.06076 19.5369 8.06076H2.17077ZM4.34153 14.9349C5.74023 14.9349 6.8741 13.801 6.8741 12.4023C6.8741 11.0036 5.74023 9.86973 4.34153 9.86973C2.94284 9.86973 1.80897 11.0036 1.80897 12.4023C1.80897 13.801 2.94284 14.9349 4.34153 14.9349ZM13.3864 12.4023C13.3864 13.801 12.2525 14.9349 10.8538 14.9349C9.45514 14.9349 8.32127 13.801 8.32127 12.4023C8.32127 11.0036 9.45514 9.86973 10.8538 9.86973C12.2525 9.86973 13.3864 11.0036 13.3864 12.4023ZM17.3661 14.9349C18.7648 14.9349 19.8987 13.801 19.8987 12.4023C19.8987 11.0036 18.7648 9.86973 17.3661 9.86973C15.9674 9.86973 14.8336 11.0036 14.8336 12.4023C14.8336 13.801 15.9674 14.9349 17.3661 14.9349ZM6.8741 18.9146C6.8741 20.3133 5.74023 21.4472 4.34153 21.4472C2.94284 21.4472 1.80897 20.3133 1.80897 18.9146C1.80897 17.5159 2.94284 16.382 4.34153 16.382C5.74023 16.382 6.8741 17.5159 6.8741 18.9146ZM10.8538 21.4472C12.2525 21.4472 13.3864 20.3133 13.3864 18.9146C13.3864 17.5159 12.2525 16.382 10.8538 16.382C9.45514 16.382 8.32127 17.5159 8.32127 18.9146C8.32127 20.3133 9.45514 21.4472 10.8538 21.4472ZM19.8987 18.9146C19.8987 20.3133 18.7648 21.4472 17.3661 21.4472C15.9674 21.4472 14.8336 20.3133 14.8336 18.9146C14.8336 17.5159 15.9674 16.382 17.3661 16.382C18.7648 16.382 19.8987 17.5159 19.8987 18.9146ZM4.34153 27.9595C5.74023 27.9595 6.8741 26.8256 6.8741 25.4269C6.8741 24.0282 5.74023 22.8943 4.34153 22.8943C2.94284 22.8943 1.80897 24.0282 1.80897 25.4269C1.80897 26.8256 2.94284 27.9595 4.34153 27.9595ZM13.3864 25.4269C13.3864 26.8256 12.2525 27.9595 10.8538 27.9595C9.45514 27.9595 8.32127 26.8256 8.32127 25.4269C8.32127 24.0282 9.45514 22.8943 10.8538 22.8943C12.2525 22.8943 13.3864 24.0282 13.3864 25.4269ZM17.3661 27.9595C18.7648 27.9595 19.8987 26.8256 19.8987 25.4269C19.8987 24.0282 18.7648 22.8943 17.3661 22.8943C15.9674 22.8943 14.8336 24.0282 14.8336 25.4269C14.8336 26.8256 15.9674 27.9595 17.3661 27.9595Z" fill="#FF3342"/>
<path d="M4.34153 14.3922C5.44051 14.3922 6.3314 13.5013 6.3314 12.4023C6.3314 11.3033 5.44051 10.4124 4.34153 10.4124C3.24256 10.4124 2.35166 11.3033 2.35166 12.4023C2.35166 13.5013 3.24256 14.3922 4.34153 14.3922Z" fill="#FF3342"/>
<path d="M10.8538 14.3922C11.9528 14.3922 12.8437 13.5013 12.8437 12.4023C12.8437 11.3033 11.9528 10.4124 10.8538 10.4124C9.75486 10.4124 8.86397 11.3033 8.86397 12.4023C8.86397 13.5013 9.75486 14.3922 10.8538 14.3922Z" fill="#FF3342"/>
<path d="M17.3661 14.3922C18.4651 14.3922 19.356 13.5013 19.356 12.4023C19.356 11.3033 18.4651 10.4124 17.3661 10.4124C16.2672 10.4124 15.3763 11.3033 15.3763 12.4023C15.3763 13.5013 16.2672 14.3922 17.3661 14.3922Z" fill="#FF3342"/>
<path d="M4.34153 20.9045C5.44051 20.9045 6.3314 20.0136 6.3314 18.9146C6.3314 17.8156 5.44051 16.9247 4.34153 16.9247C3.24256 16.9247 2.35166 17.8156 2.35166 18.9146C2.35166 20.0136 3.24256 20.9045 4.34153 20.9045Z" fill="#FF3342"/>
<path d="M17.3661 20.9045C18.4651 20.9045 19.356 20.0136 19.356 18.9146C19.356 17.8156 18.4651 16.9247 17.3661 16.9247C16.2672 16.9247 15.3763 17.8156 15.3763 18.9146C15.3763 20.0136 16.2672 20.9045 17.3661 20.9045Z" fill="#FF3342"/>
<path d="M10.8538 27.4168C11.9528 27.4168 12.8437 26.5259 12.8437 25.4269C12.8437 24.3279 11.9528 23.437 10.8538 23.437C9.75486 23.437 8.86397 24.3279 8.86397 25.4269C8.86397 26.5259 9.75486 27.4168 10.8538 27.4168Z" fill="#FF3342"/>
<path d="M17.3661 27.4168C18.4651 27.4168 19.356 26.5259 19.356 25.4269C19.356 24.3279 18.4651 23.437 17.3661 23.437C16.2672 23.437 15.3763 24.3279 15.3763 25.4269C15.3763 26.5259 16.2672 27.4168 17.3661 27.4168Z" fill="#FF3342"/>
<path d="M22.8353 7.17009C22.5347 7.23972 22.2904 6.92533 22.4323 6.65131L24.5603 2.54056C24.6817 2.30604 25.0054 2.27639 25.1674 2.48494L27.5487 5.5506C27.7107 5.75915 27.602 6.06537 27.3447 6.125L22.8353 7.17009Z" fill="#FF3342"/>
<path d="M23.2483 9.7364C22.9787 9.58611 23.009 9.18915 23.2981 9.08133L27.6356 7.46491C27.883 7.37272 28.1427 7.56809 28.1226 7.8314L27.8281 11.7021C27.808 11.9654 27.5218 12.1192 27.2911 11.9907L23.2483 9.7364Z" fill="#FF3342"/>
<path d="M20.7542 6.56459C20.6213 6.84307 20.2232 6.83814 20.0974 6.55643L18.2087 2.33037C18.1009 2.08927 18.2794 1.8177 18.5435 1.82098L22.4251 1.86917C22.6892 1.87244 22.8609 2.14836 22.7472 2.3867L20.7542 6.56459Z" fill="#FF3342"/>
</g>
<defs>
<clipPath id="clip0_191_893">
<rect width="30" height="29.7685" fill="white"/>
</clipPath>
</defs>
</svg>
