<svg width="4146" height="4114" viewBox="0 0 4146 4114" fill="none" xmlns="http://www.w3.org/2000/svg">
<path fill-rule="evenodd" clip-rule="evenodd" d="M300 1114C134.315 1114 0 1248.31 0 1414V3814C0 3979.69 134.315 4114 300 4114H2700C2865.69 4114 3000 3979.69 3000 3814V1414C3000 1248.31 2865.69 1114 2700 1114H300ZM600 2064C793.3 2064 950 1907.3 950 1714C950 1520.7 793.3 1364 600 1364C406.7 1364 250 1520.7 250 1714C250 1907.3 406.7 2064 600 2064ZM1850 1714C1850 1907.3 1693.3 2064 1500 2064C1306.7 2064 1150 1907.3 1150 1714C1150 1520.7 1306.7 1364 1500 1364C1693.3 1364 1850 1520.7 1850 1714ZM2400 2064C2593.3 2064 2750 1907.3 2750 1714C2750 1520.7 2593.3 1364 2400 1364C2206.7 1364 2050 1520.7 2050 1714C2050 1907.3 2206.7 2064 2400 2064ZM950 2614C950 2807.3 793.3 2964 600 2964C406.7 2964 250 2807.3 250 2614C250 2420.7 406.7 2264 600 2264C793.3 2264 950 2420.7 950 2614ZM1500 2964C1693.3 2964 1850 2807.3 1850 2614C1850 2420.7 1693.3 2264 1500 2264C1306.7 2264 1150 2420.7 1150 2614C1150 2807.3 1306.7 2964 1500 2964ZM2750 2614C2750 2807.3 2593.3 2964 2400 2964C2206.7 2964 2050 2807.3 2050 2614C2050 2420.7 2206.7 2264 2400 2264C2593.3 2264 2750 2420.7 2750 2614ZM600 3864C793.3 3864 950 3707.3 950 3514C950 3320.7 793.3 3164 600 3164C406.7 3164 250 3320.7 250 3514C250 3707.3 406.7 3864 600 3864ZM1850 3514C1850 3707.3 1693.3 3864 1500 3864C1306.7 3864 1150 3707.3 1150 3514C1150 3320.7 1306.7 3164 1500 3164C1693.3 3164 1850 3320.7 1850 3514ZM2400 3864C2593.3 3864 2750 3707.3 2750 3514C2750 3320.7 2593.3 3164 2400 3164C2206.7 3164 2050 3320.7 2050 3514C2050 3707.3 2206.7 3864 2400 3864Z" fill="#FFFFFF"/>
<circle cx="600" cy="1714" r="275" fill="#FFFFFF"/>
<circle cx="1500" cy="1714" r="275" fill="#FFFFFF"/>
<circle cx="2400" cy="1714" r="275" fill="#FFFFFF"/>
<circle cx="600" cy="2614" r="275" fill="#FFFFFF"/>
<circle cx="2400" cy="2614" r="275" fill="#FFFFFF"/>
<circle cx="1500" cy="3514" r="275" fill="#FFFFFF"/>
<circle cx="2400" cy="3514" r="275" fill="#FFFFFF"/>
<path d="M3155.84 990.907C3114.3 1000.53 3080.54 957.081 3100.15 919.212L3394.24 351.105C3411.01 318.695 3455.74 314.597 3478.13 343.419L3807.23 767.093C3829.62 795.915 3814.59 838.235 3779.04 846.475L3155.84 990.907Z" fill="#FFFFFF"/>
<path d="M3212.91 1345.57C3175.66 1324.8 3179.84 1269.94 3219.8 1255.04L3819.24 1031.65C3853.43 1018.91 3889.32 1045.91 3886.55 1082.3L3845.84 1617.23C3843.07 1653.62 3803.51 1674.88 3771.63 1657.11L3212.91 1345.57Z" fill="#FFFFFF"/>
<path d="M2868.23 907.228C2849.87 945.715 2794.85 945.033 2777.46 906.101L2516.44 322.059C2501.55 288.74 2526.22 251.209 2562.71 251.662L3099.15 258.321C3135.65 258.774 3159.37 296.905 3143.66 329.844L2868.23 907.228Z" fill="#FFFFFF"/>
</svg>
